PathFileType	4	(X/Y/Z)	 s08c0402.trc
DataRate	CameraRate	NumFrames	NumMarkers	Units	OrigDataRate	OrigDataStartFrame	OrigNumFrames
200	200	7	50	mm	200	1251	2000
Frame#	Time	racr			lacr			c7			jug			rlel			rdr			llel			ldr			s2			lic			ric			lasi			rasi			rpsi			lpsi			rgt			lgt			rth1			rth2			rth3			rth4			rlfc			rmfc			rsh1			rsh2			rsh3			rsh4			rlmal			rmmal			rcal			rtoe			rmt5			lth1			lth2			lth4			lth3			llfc			lmfc			llmal			lmmal			lcal			lmt5			lsh1			lsh2			lsh3			lsh4			ltoe			SBIKE			LBIKE			RBIKE			
		X1	Y1	Z1	X2	Y2	Z2	X3	Y3	Z3	X4	Y4	Z4	X5	Y5	Z5	X6	Y6	Z6	X7	Y7	Z7	X8	Y8	Z8	X9	Y9	Z9	X10	Y10	Z10	X11	Y11	Z11	X12	Y12	Z12	X13	Y13	Z13	X14	Y14	Z14	X15	Y15	Z15	X16	Y16	Z16	X17	Y17	Z17	X18	Y18	Z18	X19	Y19	Z19	X20	Y20	Z20	X21	Y21	Z21	X22	Y22	Z22	X23	Y23	Z23	X24	Y24	Z24	X25	Y25	Z25	X26	Y26	Z26	X27	Y27	Z27	X28	Y28	Z28	X29	Y29	Z29	X30	Y30	Z30	X31	Y31	Z31	X32	Y32	Z32	X33	Y33	Z33	X34	Y34	Z34	X35	Y35	Z35	X36	Y36	Z36	X37	Y37	Z37	X38	Y38	Z38	X39	Y39	Z39	X40	Y40	Z40	X41	Y41	Z41	X42	Y42	Z42	X43	Y43	Z43	X44	Y44	Z44	X45	Y45	Z45	X46	Y46	Z46	X47	Y47	Z47	X48	Y48	Z48	X49	Y49	Z49	X50	Y50	Z50	
1251	6.2550	837.687021	1407.917287	-154.796673	853.232848	1313.677415	-482.562771	833.118309	1427.707340	-329.927738	785.616865	1275.195243	-310.544636	741.277053	1217.807622	33.405910	776.211021	934.224247	-32.158566	649.665110	1113.906543	-589.502546	773.943117	931.988394	-438.000845	265.016347	1260.545613	-226.670361	390.634528	1234.103650	-391.435513	445.983931	1243.982263	-78.700528	428.281480	1199.368021	-347.061444	445.134636	1168.988664	-102.696277	308.504608	1295.702097	-174.133181	297.927556	1300.918695	-266.943402	319.692565	1137.821695	-44.621753	361.145363	1142.008498	-413.844164	337.401739	966.967227	-29.034716	360.060918	881.091400	-28.047002	340.087412	797.109522	-37.642844	396.501506	881.911808	-29.296495	344.570993	675.204707	-47.729855	334.585427	663.664061	-158.276294	253.036345	576.223673	-16.912878	236.534861	489.343369	-34.068204	180.192237	424.788037	-41.519051	268.381620	478.341624	-57.380397	121.564215	315.943158	-49.542267	186.908769	358.301342	-141.948195	50.218158	332.741971	-101.295787	282.314129	146.278085	-98.085701	190.960510	172.634470	-33.747673	445.716900	1045.163070	-415.233041	524.882074	1005.345355	-412.205118	540.541807	1036.204998	-423.506091	572.235545	929.465894	-408.729609	637.120134	820.499538	-380.903090	630.653017	796.557080	-272.326184	317.636929	557.788609	-387.768944	342.541312	564.376302	-298.458016	234.595270	553.550594	-350.812166	419.929890	447.142373	-414.983459	552.708505	729.410134	-402.758539	497.034218	665.881058	-385.237424	417.027737	629.673704	-391.117752	509.505649	651.749602	-346.942827	505.415139	455.536778	-346.544242	-141.736277	941.222915	-222.288492	18.164044	84.134333	-426.120759	11.084318	80.376584	-27.667928	
1252	6.2600	837.122256	1406.865513	-154.904473	854.038993	1310.673856	-481.983334	833.555594	1426.291566	-330.316651	785.119356	1274.087762	-310.833593	738.977013	1217.771830	33.874442	775.993146	934.610881	-31.882580	649.020054	1112.876434	-590.404534	773.207840	931.929210	-438.119826	264.263375	1262.065114	-227.334260	390.107213	1233.535958	-391.859236	445.356305	1246.456305	-78.672998	427.478789	1199.483771	-347.336344	446.018995	1171.428483	-102.300763	308.135291	1296.538253	-175.644895	297.820556	1302.459629	-267.859363	320.586046	1139.470014	-44.061753	359.873318	1141.935364	-413.819893	343.619184	967.148604	-29.169500	368.680355	882.074620	-28.526953	350.476946	797.534469	-37.377603	404.996328	883.934738	-30.743101	356.865182	675.816716	-46.406769	345.682653	665.295772	-156.935037	262.282410	580.044334	-15.608106	242.126386	493.964699	-33.560990	183.158287	431.929472	-40.895403	273.295032	481.995221	-57.240370	120.203521	325.346558	-49.230286	183.171418	362.773044	-141.861222	49.313614	344.811672	-101.239920	273.986111	149.394842	-97.934589	183.895642	179.608600	-33.525626	444.448440	1044.207704	-415.239846	520.344272	1005.159431	-417.773677	538.537123	1034.561590	-425.109330	569.601182	927.363305	-409.028325	633.101186	817.983761	-381.435131	626.888739	793.993660	-274.387416	321.098229	548.094986	-389.001600	346.142826	555.042087	-298.279990	238.497080	540.826287	-350.353591	426.933560	440.374666	-415.172711	550.553600	724.457596	-403.932247	496.974577	659.630030	-385.455059	418.109714	620.833804	-391.035708	509.893785	646.493865	-347.375545	512.173118	451.472327	-346.630177	-141.661311	941.324783	-222.378520	18.138454	84.158841	-426.123454	11.111397	80.610392	-27.511778	
1253	6.2650	836.471946	1406.200104	-154.772752	854.985148	1307.836479	-481.249870	833.908555	1424.964367	-330.635435	784.869069	1272.999312	-310.810360	736.756328	1217.841949	34.342153	775.800466	934.838636	-31.475257	648.365237	1112.062227	-591.078878	772.688724	932.041406	-438.031402	264.332496	1263.646303	-228.318342	389.697989	1232.909388	-392.335182	444.683980	1248.645612	-78.849180	426.721337	1199.486707	-347.663990	444.951547	1173.861310	-103.401271	307.563902	1299.897902	-176.621251	296.771832	1304.395946	-268.596883	321.919453	1140.882312	-43.312464	358.746503	1142.086682	-413.955081	350.261402	967.543243	-29.467701	377.966061	883.107190	-29.345037	361.600389	798.079002	-37.448003	414.070966	885.899502	-33.121662	369.727031	676.512378	-45.364481	357.439841	666.746064	-155.699932	272.409636	583.863464	-14.492830	248.883149	498.938165	-33.167804	187.594322	439.078838	-40.233346	279.429420	486.046163	-57.058454	120.585307	335.034522	-48.748036	179.898618	367.521010	-141.820053	50.308331	357.601531	-101.006680	265.954886	152.318433	-97.964209	177.386748	186.715890	-33.479226	442.505410	1043.885382	-416.446009	516.777095	1004.565186	-421.106373	536.759743	1033.141616	-425.951576	566.857763	925.776471	-410.077193	629.344415	815.633732	-382.527493	623.596497	792.178887	-274.682849	325.027800	537.689984	-388.918577	350.024653	545.340396	-298.379516	242.753019	528.443663	-350.076622	433.601387	432.863759	-415.267072	548.621303	719.762213	-404.780303	497.093721	652.985890	-385.299847	419.651298	612.087824	-391.196999	510.942807	642.151749	-349.942930	518.634599	446.288473	-347.029182	-141.562811	941.403712	-222.470049	18.154997	84.192115	-426.116539	11.109432	80.754778	-27.498293	
1254	6.2700	835.795427	1405.804228	-154.312417	855.894338	1305.116740	-480.108087	834.374281	1423.628091	-331.432684	784.520953	1272.009874	-311.000558	734.634028	1218.098177	34.858141	775.754800	934.981937	-31.149752	647.800057	1111.464779	-591.579391	772.324345	932.370656	-437.801486	264.163314	1264.881016	-229.318983	389.406674	1232.220228	-392.858779	444.005591	1250.692572	-79.089519	426.012755	1199.364580	-348.043590	445.103313	1176.145275	-103.919634	307.448045	1300.545510	-177.768926	295.917675	1305.889135	-269.598917	323.407320	1142.004392	-42.627814	357.564110	1142.312944	-414.206987	357.506352	967.854424	-29.792328	387.764505	884.302610	-30.416733	373.596882	798.717082	-37.162871	423.649085	888.085560	-35.264371	382.891449	677.420804	-44.682165	369.757673	668.263775	-154.560527	283.292007	587.799366	-13.553077	256.549341	503.843539	-32.941209	193.319678	446.250745	-39.620192	286.386286	490.106909	-57.417354	122.676256	344.194692	-48.909836	177.121529	372.541640	-141.827734	53.076591	370.854496	-100.646318	258.155727	155.154641	-98.032174	171.647208	193.828320	-33.364797	440.950767	1043.259732	-416.992630	513.982839	1003.569811	-422.612383	534.925024	1031.303526	-426.372939	564.042824	924.097465	-410.810652	625.913653	813.284932	-383.539947	620.090300	790.423855	-275.482614	329.437029	526.646180	-387.589085	354.113032	535.422149	-298.434077	247.501983	515.971204	-349.966464	440.079849	424.824116	-415.347327	547.089371	715.123745	-405.067839	497.504856	646.764454	-385.103404	421.394568	603.578830	-391.012478	511.717917	637.067235	-350.843592	524.967447	440.089155	-347.273728	-141.431881	941.491231	-222.568942	18.173454	84.221533	-426.114857	11.143788	80.814946	-27.494320	
1255	6.2750	835.071338	1405.669458	-153.712154	856.908009	1302.753748	-478.811996	834.687485	1422.625627	-331.236842	784.409474	1271.213800	-310.329502	732.656081	1218.375316	35.315217	775.763585	935.064212	-30.961595	647.365716	1111.162876	-591.763943	772.162839	932.756000	-437.711365	263.957574	1265.760272	-230.232061	389.233086	1231.464766	-393.425453	443.540983	1252.417430	-79.448512	425.356671	1199.105138	-348.474351	445.383379	1178.126445	-104.642775	310.015625	1299.959875	-180.455150	298.077456	1304.762479	-273.592725	325.090937	1142.885680	-42.075414	356.325825	1142.580159	-414.610645	365.022031	968.200388	-30.554232	397.982825	885.676461	-31.068600	386.140794	799.630586	-36.924883	433.463604	890.598022	-37.416685	396.042037	678.753209	-44.120413	382.103304	669.744250	-154.064225	294.604952	591.607705	-12.930439	265.081412	508.795323	-32.882340	200.086350	453.002490	-39.177413	293.997861	494.388698	-57.938142	125.657959	353.596434	-48.367754	174.871314	377.831332	-141.887312	57.562751	384.237128	-99.862253	250.566059	157.852067	-98.099371	166.418431	201.007551	-33.340244	440.219352	1042.414131	-416.609009	511.763802	1002.180495	-422.700884	533.032612	1029.053176	-426.421651	561.119404	922.460292	-411.527933	622.688149	810.677445	-384.582981	616.634800	788.645387	-276.158934	333.600508	516.186664	-387.717549	358.150969	525.535640	-298.801107	251.758093	504.531416	-350.493078	446.188513	416.245668	-415.382922	545.728724	710.319133	-405.640923	497.824518	640.617597	-385.326475	423.338362	595.312601	-391.078619	512.707760	631.554272	-351.168505	530.931080	432.855364	-347.269340	-141.239903	941.576430	-222.669770	18.215579	84.246689	-426.092446	11.229182	80.936105	-27.543498	
1256	6.2800	834.281118	1405.689323	-153.071866	858.268267	1301.301346	-479.097759	834.886579	1421.693565	-330.856926	784.869782	1270.269660	-309.425972	730.936322	1218.668868	35.877028	775.887463	935.059479	-30.977434	646.970205	1111.303970	-591.802187	772.204835	933.196900	-437.798959	263.660697	1266.255086	-230.927531	389.177044	1230.639290	-394.030633	443.394916	1253.948682	-79.298062	424.756715	1198.696132	-348.955483	445.759310	1179.919143	-105.473705	308.625699	1301.307584	-180.489676	296.944190	1306.515004	-273.786534	327.405827	1143.243192	-41.784023	354.965997	1142.808042	-415.036670	372.883448	968.897237	-30.972791	408.332628	887.214281	-32.119476	398.868957	800.818787	-36.948423	443.457575	893.110534	-39.593831	408.840073	680.272704	-44.555645	394.410160	671.369873	-153.936340	306.120496	595.271101	-12.506123	273.909861	513.536686	-33.048978	207.368058	459.727585	-38.814993	301.997559	498.756046	-58.777175	129.199834	362.963435	-48.124225	173.179132	383.386486	-142.001835	61.905877	397.557164	-99.726124	243.243529	161.087340	-98.052467	161.601617	208.652785	-33.261747	438.240652	1041.747066	-417.098751	509.922280	1000.404429	-421.781055	531.082151	1026.396424	-426.145943	557.984203	920.537248	-411.782601	619.758270	808.066268	-386.196447	613.370037	786.554714	-276.835271	337.350405	505.323159	-387.347320	362.260206	515.519152	-299.209761	256.221778	492.909383	-350.474607	451.770030	407.140926	-415.456138	544.410142	706.015154	-406.761376	498.382828	634.680359	-385.660169	425.280085	587.477178	-391.620306	513.814916	626.318539	-351.967561	536.544029	424.782743	-347.195270	-141.033448	941.662305	-222.779889	18.287583	84.286727	-426.064108	11.292925	80.828734	-27.668877	
1257	6.2850	833.488971	1406.012461	-152.393901	859.204009	1299.541097	-477.269769	834.996466	1421.041595	-330.190409	784.890560	1269.728721	-308.199366	729.522417	1218.734831	36.178877	775.836282	934.796761	-30.680993	646.814496	1111.805262	-591.566406	772.379701	933.544305	-437.829866	263.389359	1266.463801	-231.380787	389.238366	1229.740087	-394.669745	443.307933	1255.149307	-79.826464	424.216518	1198.125311	-349.486192	446.253135	1181.485458	-106.543636	308.344340	1301.190603	-181.585774	296.648266	1306.764600	-274.641842	330.042392	1143.358850	-41.723314	353.403191	1142.863280	-415.422670	380.995996	969.475335	-31.431291	418.638567	888.904073	-33.163815	411.627154	802.407374	-37.012203	453.251264	895.627444	-42.263979	421.406331	681.950315	-44.715385	406.429520	673.251009	-154.115766	317.528517	598.896979	-12.512123	282.868863	518.286168	-33.472624	214.845830	466.311599	-38.727892	309.990540	503.210631	-60.032645	133.015962	372.203178	-47.951735	172.076146	389.203502	-142.174350	67.382498	410.127589	-99.842042	236.304880	164.909370	-98.039175	157.269295	216.588535	-33.250981	436.145526	1040.881248	-417.565979	508.260570	998.248803	-420.262073	529.073285	1023.339126	-425.594047	554.702121	918.942694	-413.209513	616.619275	805.221523	-387.245311	610.214393	783.927025	-277.695133	341.177191	494.836348	-387.595734	366.135106	505.576522	-299.507605	260.569482	481.440714	-350.601765	456.844564	397.734686	-415.461730	543.118030	701.519534	-407.249889	500.376732	631.214583	-390.729565	426.988024	579.961769	-392.226115	515.348770	621.767723	-354.725898	541.778909	416.105859	-347.285208	-140.802305	941.751124	-222.890114	18.378490	84.329904	-426.074750	11.424411	80.993648	-27.670202	
